<?xml version="1.0" encoding="utf-8"?>
<!-- Generator: Adobe Illustrator 21.1.0, SVG Export Plug-In . SVG Version: 6.00 Build 0)  -->
<svg version="1.1" id="Layer_1" xmlns="http://www.w3.org/2000/svg" xmlns:xlink="http://www.w3.org/1999/xlink" x="0px" y="0px"
	 viewBox="0 0 180 80" style="enable-background:new 0 0 180 80;" xml:space="preserve">
<style type="text/css">
	.st0{fill:#FCEE21;}
	.st1{fill:#FDF14D;}
	.st2{fill:none;stroke:#000000;stroke-miterlimit:10;}
	.st3{fill:#FEF8A6;}
	.st4{fill:#FDF57A;}
	.st5{fill:#FFFF00;stroke:#000000;stroke-linecap:round;stroke-miterlimit:10;}
	.st6{fill:#FFCCCC;stroke:#000000;stroke-linecap:round;stroke-miterlimit:10;}
	.st7{fill:#FF8F72;}
	.st8{fill:#FFFF00;stroke:#000000;stroke-width:0.75;stroke-miterlimit:10;}
	.st9{fill:#E6E7E8;stroke:#231F20;stroke-linecap:round;stroke-miterlimit:10;}
	.st10{stroke:#000000;stroke-miterlimit:10;}
</style>
<g>
	<g id="XMLID_91_">
		<g>
			<path class="st0" d="M141.3,29.6c0.3,5.8,0.9,11.2,1.7,16.1c-21.9,9.8-30.8,13.3-65.6,31.3L76,42.3l65.1-29.1
				C140.9,18.3,140.9,23.8,141.3,29.6z"/>
			<path class="st1" d="M141.1,13.2L76,42.3L39.5,32.1l0.1-0.5c0,0,54.4-27.1,64.8-29.6C128.8,5.7,141.1,13.2,141.1,13.2z"/>
			<path class="st1" d="M76,42.3l1.4,34.8c-9.3,2-36-12.8-38.1-13c-2.2-0.3-0.3-32.1-0.3-32.1l0.5,0.1L76,42.3z"/>
		</g>
		<g>
			<path class="st2" d="M77.4,77.1c34.8-18,43.7-21.5,65.6-31.3c-0.8-5-1.4-10.3-1.7-16.1c-0.3-5.9-0.4-11.4-0.2-16.4L76,42.3
				L77.4,77.1c-9.3,2-36-12.8-38.1-13c-2.2-0.3-0.3-32.1-0.3-32.1l0.5,0.1L76,42.3"/>
			<path class="st2" d="M39.6,31.6c0,0,54.4-27.1,64.8-29.6c24.3,3.7,36.6,11.2,36.6,11.2"/>
		</g>
	</g>
</g>
<path class="st3" d="M92.4,7.4c5.8-2.7,14.2-5,16.5-2.7c2.5,2.7,28.6,8.3,25.6,8.7c-1.3,0.2-23.2,5.9-24.7,1.4
	c-0.6-1.9-5,3.1-7.2,1.3c-0.6-0.5-1.2-0.8-2.2-0.7c-1.6,0.2-4.2,1-6.3,2.6c-2.5,1.9-46.8,12.5-49.2,14C52.2,24.9,87.4,9.7,92.4,7.4z
	"/>
<path class="st3" d="M40,41.4c-0.1-2.8-0.6-6.5,1-7.9c1.8-1.6,29.7,9.9,29.3,11.5c-0.2,0.7-0.3,18.4-2.7,19.6
	c-1.1,0.5-9-16.6-10.3-15.2c-0.3,0.3-5.8-2.7-6-2.2c-0.2,0.8,6.2,22.4,6.5,23.4c0.4,1.2-17-8-16.7-6.9C39.1,60.4,40.1,43.8,40,41.4z
	"/>
<path class="st4" d="M92.1,57c-0.7-0.4,0.9-4.6,0.3-7.6c-0.1-0.3,5.6-1.7,5.8-2.1c0.1-0.1,0.2-0.2,0.5-0.2c0.1-0.1,0.3-0.2,0.4-0.3
	c0.3-0.2,0.4-0.3,0.4-0.3c0.4-0.3-0.4-2-0.8-3.2c-0.6-2,0-2.7-0.4-3.3C96.6,37,79.3,41.6,79,47.4c-0.1,2.2,2.8,13.4,4.2,13.8
	c0,0,0,0,0,0C87.5,59.5,92.3,57.5,92.1,57C92.1,57,92.1,57,92.1,57z"/>
<path class="st5" d="M110.2,35.3c0.1,0.3,0.3,0.5,0.6,0.5c0.3,0.1,0.6,0,0.8,0c0.3-0.1,0.6-0.1,0.9-0.3c0.1-0.1,0.2-0.3,0.3-0.4
	c0.2-0.3,0.4-0.6,0.5-1c0.2-0.6,0.3-1.3,0.4-1.9c-0.5,0.6-1.1,1-1.7,1.5c-0.3,0.3-0.6,0.6-0.9,0.8C111,34.6,110.2,35.2,110.2,35.3z"
	/>
<path class="st6" d="M112.7,51.4c1.9-0.2,3-2.1,3.4-3.5c0.6-2.2-0.6-4-0.8-4.2c-2.4,1.2-4.7,2.5-7.1,3.7
	C108.7,50,110.8,51.6,112.7,51.4z"/>
<ellipse transform="matrix(0.9658 -0.2593 0.2593 0.9658 -7.9587 28.3355)" class="st7" cx="103.4" cy="44.3" rx="4.1" ry="2"/>
<path class="st8" d="M101.3,36.5c0.5,0.2,1,0.4,1.4,0.6c0.3,0.1,0.5,0.2,0.8,0.3c0.6,0.2,1.2,0.2,1.8,0.1c0.3,0,0.5-0.1,0.7-0.2
	c0.4-0.2,0.7-0.7,0.8-1.2c0-0.9-0.4-0.6-1.1-0.5C104.3,35.9,102.8,36.2,101.3,36.5z"/>
<ellipse transform="matrix(0.9717 -0.2362 0.2362 0.9717 -6.1734 25.987)" class="st9" cx="105.4" cy="38.8" rx="2.6" ry="5.1"/>
<ellipse transform="matrix(0.9717 -0.2362 0.2362 0.9717 -6.4736 26.2016)" class="st10" cx="106.1" cy="40.1" rx="1.4" ry="1.8"/>
<ellipse transform="matrix(0.9146 -0.4043 0.4043 0.9146 -5.4734 50.7403)" class="st7" cx="117.4" cy="38.3" rx="4.1" ry="2"/>
<ellipse transform="matrix(0.9717 -0.2362 0.2362 0.9717 -5.3541 27.5531)" class="st9" cx="112.3" cy="36.1" rx="2.6" ry="5.1"/>
<ellipse transform="matrix(0.9717 -0.2362 0.2362 0.9717 -5.6542 27.7677)" class="st10" cx="113.1" cy="37.5" rx="1.4" ry="1.8"/>
</svg>
