<?xml version="1.0" encoding="utf-8"?>
<!-- Generator: Adobe Illustrator 21.1.0, SVG Export Plug-In . SVG Version: 6.00 Build 0)  -->
<svg version="1.1" id="Layer_1" xmlns="http://www.w3.org/2000/svg" xmlns:xlink="http://www.w3.org/1999/xlink" x="0px" y="0px"
	 viewBox="0 0 180 80" style="enable-background:new 0 0 180 80;" xml:space="preserve">
<style type="text/css">
	.st0{fill:#8C6239;stroke:#000000;stroke-miterlimit:10;}
	.st1{fill:#FCEE21;stroke:#231F20;stroke-miterlimit:10;}
	.st2{fill:none;stroke:#754C24;stroke-width:2;stroke-miterlimit:10;}
	.st3{fill:#ED1C24;stroke:#000000;stroke-width:0.25;stroke-miterlimit:10;}
	.st4{fill:#FCEE21;stroke:#000000;stroke-width:0.25;stroke-miterlimit:10;}
	.st5{fill:#FCEE21;stroke:#000000;stroke-miterlimit:10;}
	.st6{stroke:#000000;stroke-width:0.75;stroke-miterlimit:10;}
	.st7{fill:#FFFFFF;stroke:#000000;stroke-width:0.75;stroke-miterlimit:10;}
</style>
<g>
	<path class="st0" d="M97.8,39.3c-0.1-7.1-4.7-13.2-11.6-16.5c-0.9-0.4-1.8-0.8-2.7-1.1c-2.6-0.9-5.5-1.4-8.5-1.4
		c-12.6,0-22.8,8.6-22.8,19.1c0,0.3,0,0.7,0,1C52.8,50.6,62.8,58.6,75,58.6c12.6,0,22.8-8.6,22.8-19.1
		C97.8,39.5,97.8,39.4,97.8,39.3z M75,48.1c-5.2,0-9.4-4.4-9.4-9.8c0-5.4,4.2-9.8,9.4-9.8s9.4,4.4,9.4,9.8
		C84.3,43.7,80.1,48.1,75,48.1z"/>
	<path class="st1" d="M52.2,40.6c0.8-1,1.8-1.8,2.7-1.6c1.7,0.4,1.5,4.7,2.7,4.8c0.6,0.1,1.5-1,3-4.8c0.7,0.4,1.6,0.9,2.3,0.6
		c1.7-0.7,0.4-4.4,2.1-7.4c2.6-4.5,10.2-4.3,10.6-4.3c1.4,0.1,6.5,0.5,9.6,4.3c2.8,3.4,3,8.6,4.3,8.5c0.6,0,1-1.2,2.4-1.4
		c0.2,0,0.4,0,0.7,0c1.5,0.4,1.3,3.3,2.2,3.5c1.1,0.2,2.6-3.6,3.2-3.4c0.3,0.1,0.4,0.8,0,3.4c0.8-1.7,2.1-5,1.6-9
		c-0.4-2.7-1.5-4.6-2.9-7.2c-1.1-2.2-3.1-5.9-6.4-8.7c-9.9-8.4-29.2-6.5-34.5,1.6c-0.8,1.2-1.1,2.5-1.9,5
		C51.8,31.1,51.8,36.8,52.2,40.6z"/>
	<path class="st2" d="M88.6,47.7c-0.9,2.1-2.8,3.7-4.8,4.6s-4.3,1.4-6.6,1.7"/>
	<ellipse transform="matrix(0.5 -0.866 0.866 0.5 23.4377 83.495)" class="st3" cx="84" cy="21.4" rx="0.5" ry="2.7"/>
	<ellipse transform="matrix(0.9579 -0.2871 0.2871 0.9579 -3.7229 21.7643)" class="st3" cx="72.3" cy="23.6" rx="2.7" ry="0.5"/>
	<ellipse class="st4" cx="67" cy="16.1" rx="2.7" ry="0.5"/>
	<ellipse transform="matrix(0.6695 -0.7428 0.7428 0.6695 3.8297 53.3049)" class="st3" cx="61.8" cy="22.3" rx="1.3" ry="0.6"/>
	<ellipse transform="matrix(0.7071 -0.7071 0.7071 0.7071 10.106 58.47)" class="st4" cx="75.6" cy="17" rx="1.3" ry="0.6"/>
	<path class="st5" d="M87.1,56.2c0.4,4.3,0.5,8.6,0.3,13c0.2-1.5-1-2.8-2.4-3.3c-1-0.3-2.2-0.3-3.1,0.3c-0.9,0.6-1.5,1.7-1.3,2.7
		c0,0.1,0.1,0.3,0.2,0.4c0.1,0.1,0.3,0.2,0.4,0.3c1.8,0.8,3.8,1,5.7,0.6c0.1,0,0.2,0,0.3-0.1c0.1-0.1,0.1-0.2,0.1-0.3
		c0.1-0.6,0.3-1.2,0.4-1.8"/>
	<path class="st5" d="M69.2,58.5c-0.1,3.6-0.2,7.3-0.2,10.9c0-0.4,0-0.7,0-1.1c-1.4-1-3.2-1.2-4.8-0.7c-0.7,0.2-1.4,0.7-1.5,1.4
		c-0.2,0.8,0.4,1.5,1.1,1.8C64.4,71,65.2,71,66,71c0.7,0,1.5-0.1,2.1-0.4c0.6-0.3,1.1-1.1,1-1.8"/>

		<ellipse transform="matrix(0.9998 -1.883742e-02 1.883742e-02 0.9998 -0.2125 1.3961)" class="st6" cx="74" cy="12" rx="3.4" ry="6"/>

		<ellipse transform="matrix(0.9998 -1.883742e-02 1.883742e-02 0.9998 -0.2613 1.393)" class="st7" cx="73.8" cy="14.6" rx="1.6" ry="2.2"/>

		<ellipse transform="matrix(0.9998 -1.883742e-02 1.883742e-02 0.9998 -0.2366 1.2432)" class="st6" cx="65.9" cy="13.2" rx="3.4" ry="6"/>

		<ellipse transform="matrix(0.9998 -1.883742e-02 1.883742e-02 0.9998 -0.2797 1.2458)" class="st7" cx="66" cy="15.5" rx="1.6" ry="2.2"/>
</g>
</svg>
