<?xml version="1.0" encoding="utf-8"?>
<!-- Generator: Adobe Illustrator 21.1.0, SVG Export Plug-In . SVG Version: 6.00 Build 0)  -->
<svg version="1.1" id="Layer_1" xmlns="http://www.w3.org/2000/svg" xmlns:xlink="http://www.w3.org/1999/xlink" x="0px" y="0px"
	 viewBox="0 0 180 80" style="enable-background:new 0 0 180 80;" xml:space="preserve">
<style type="text/css">
	.st0{fill:#D8D6EC;}
	.st1{fill:#8CC63F;}
	.st2{fill:#FFFFFF;}
	.st3{fill:none;stroke:#000000;stroke-miterlimit:10;}
	.st4{fill:#AEAECC;}
	.st5{fill:#FFFFFF;stroke:#000000;stroke-width:0.75;stroke-miterlimit:10;}
</style>
<g>
	<g id="XMLID_49_">
		<g>
			<path class="st0" d="M87.9,29.3c0.4-2.2-0.8-4.2-2.6-4.5c-1.8-0.3-3.5,1.3-3.9,3.5c-0.4,2.2,0.8,4.2,2.6,4.5
				C85.8,33.1,87.5,31.5,87.9,29.3z M101.5,27.2c-1.8-0.3-3.5,1.3-3.9,3.5c-0.4,2.2,0.8,4.2,2.6,4.5c1.8,0.3,3.5-1.3,3.9-3.5
				C104.4,29.5,103.3,27.5,101.5,27.2z M69.7,30.9c0,0,2.4-11.3,24.3-9.7c21.8,1.6,19.4,13.8,19.4,13.8s6.2,1.3,6.1,4.4
				c-0.1,2.5,0.8,5.7-5.3,4.4c-0.3,0.2-0.6,0.5-0.9,0.7c-0.1-0.2-0.1-0.4-0.2-0.5l-7.3-0.6c-0.4-0.5-0.9-1.2-1.3-2
				c0,0-0.5,1.1-0.8,1.5c-0.1,0.2-0.3,0.3-0.6,0.3l-1.2-0.1l0,0c-1.9-0.5-4.7-2-6.2-0.9c-0.2,0.1-0.3,0.3-0.4,0.4l-4.7-0.3
				c-1-0.7-2-1.2-3.1-0.8c-0.4,0.1-0.6,0.3-0.8,0.6l-4.5-0.3c-0.8-0.6-1.6-1.1-2.7-1c-0.9,0.1-1.1,0.5-1.7,0.7l-2.6-0.2
				c-0.9-0.4-1.7-1-3-1.3c-1-0.2-2.5-0.3-4.6,0.7l-0.4,0c0,0-0.1-0.1-0.1-0.1c-1.5-1.3-2.6-1.5-2.9-3.9
				C63.3,30.1,69.7,30.9,69.7,30.9z"/>
			<path class="st0" d="M113.2,43.9c0,0.1,0.1,0.3,0.2,0.5c-2,1.3-3.7,1.6-4.9,1.2c0,0-1.1-0.4-2.6-2.3L113.2,43.9z"/>
			<path d="M101.5,27.2c1.8,0.3,2.9,2.3,2.6,4.5c-0.4,2.2-2.1,3.8-3.9,3.5c-1.8-0.3-2.9-2.3-2.6-4.5C98,28.5,99.7,26.9,101.5,27.2z"
				/>
			<path class="st1" d="M101.9,43.1l1.2,0.1C102.8,43.2,102.4,43.2,101.9,43.1z"/>
			<path class="st0" d="M90.6,42.2l4.7,0.3c-0.3,0.5-0.2,1-0.8,1.3C93.3,44.4,92,43.2,90.6,42.2z"/>
			<path d="M85.3,24.8c1.8,0.3,2.9,2.3,2.6,4.5c-0.4,2.2-2.1,3.8-3.9,3.5c-1.8-0.3-2.9-2.3-2.6-4.5C81.8,26,83.5,24.5,85.3,24.8z"/>
			<path class="st0" d="M82.2,41.6l4.5,0.3c-0.4,0.5-0.6,1.1-1.4,1.3C84.2,43.4,83.3,42.4,82.2,41.6z"/>
			<path class="st1" d="M75.2,41.1l2.6,0.2c-0.2,0.1-0.4,0.1-0.7,0.1C76.3,41.5,75.7,41.3,75.2,41.1z"/>
			<path class="st2" d="M70.4,45.6c-1-0.7-1.8-1.7-2.3-2.7c-0.1-0.2-0.2-0.4-0.2-0.6l45.1,6.3c0,0,0,0.1-0.1,0.1
				c-0.8,1-2,1.4-5.2,1.5c-4.3,0.2-8.6-0.1-12.9-0.4c-2.1-0.2-4.2-0.3-6.2-0.5c-4.2-0.3-8.4-0.6-12.5-1.5
				C74.1,47.4,72.1,46.8,70.4,45.6z"/>
			<path class="st0" d="M68.1,42.8c0.5,1.1,1.3,2,2.3,2.7c1.7,1.2,3.7,1.8,5.7,2.3c4.1,0.9,8.3,1.2,12.5,1.5
				c2.1,0.1,4.2,0.3,6.2,0.5c4.3,0.3,8.6,0.6,12.9,0.4c3.2-0.1,4.4-0.5,5.2-1.5c0,0,0-0.1,0.1-0.1l0.4,0.1c1.8,1.7,2,2.6,1.9,3.1
				c-0.4,1.8-4.7,1-3.9,1.3c-0.1,0-4.9,5.7-11.3,6.5c-1.3,0.2-2.5,0.3-3.9,0.3c-1.5,0.1-4.2,0.1-9-0.4c-1.4-0.2-3.1-0.4-5-0.7
				c-1.8-0.3-3.9-0.7-6.1-1.2c0,0-10.5-4.9-8.1-9.7c-7.6-3.2-1-6-0.8-5.7l0.6,0.1C67.9,42.5,68,42.6,68.1,42.8z"/>
			<path class="st2" d="M67.5,40.5l7.6,0.6c0.6,0.3,1.1,0.4,1.9,0.3c0.3,0,0.5-0.1,0.7-0.1l4.4,0.3c1.1,0.8,2,1.8,3.2,1.6
				c0.8-0.2,1-0.8,1.4-1.3l3.9,0.3c1.4,0.9,2.7,2.1,3.8,1.6c0.6-0.3,0.5-0.8,0.8-1.3l6.6,0.5l0,0c0.5,0.1,0.9,0.2,1.2,0.1l2.7,0.2
				c1.5,1.9,2.6,2.3,2.6,2.3c1.3,0.3,2.9,0.1,4.9-1.2c0.3,1,0.6,2.8-0.3,4.1l-45.1-6.3c-0.2-0.7-0.3-1.3-0.8-1.8L67.5,40.5z"/>
		</g>
		<g>
			<path class="st3" d="M67.3,42.2c-0.2-0.4-6.8,2.5,0.8,5.7c-2.4,4.9,8.1,9.7,8.1,9.7c2.2,0.5,4.2,0.9,6.1,1.2
				c1.9,0.3,3.5,0.5,5,0.7c4.8,0.6,7.5,0.5,9,0.4c1.3,0,2.5-0.2,3.9-0.3c6.5-0.8,11.2-6.4,11.3-6.5c-0.8-0.3,3.5,0.5,3.9-1.3
				c0.1-0.5-0.1-1.4-1.9-3.1"/>
			<path class="st3" d="M101.9,43.1c-1.9-0.5-4.7-2-6.2-0.9c-0.2,0.1-0.3,0.3-0.4,0.4c-0.3,0.5-0.2,1-0.8,1.3
				c-1.1,0.5-2.4-0.7-3.8-1.6c-1-0.7-2-1.2-3.1-0.8c-0.4,0.1-0.6,0.3-0.8,0.6c-0.4,0.5-0.6,1.1-1.4,1.3c-1.2,0.2-2.1-0.8-3.2-1.6
				c-0.8-0.6-1.6-1.1-2.7-1c-0.9,0.1-1.1,0.5-1.7,0.7c-0.2,0.1-0.4,0.1-0.7,0.1c-0.8,0.1-1.3-0.1-1.9-0.3c-0.9-0.4-1.7-1-3-1.3
				c-1-0.2-2.5-0.3-4.6,0.7"/>
			<path class="st3" d="M113.2,43.9c0,0.1,0.1,0.3,0.2,0.5c0.3,1,0.6,2.8-0.3,4.1c0,0,0,0.1-0.1,0.1c-0.8,1-2,1.4-5.2,1.5
				c-4.3,0.2-8.6-0.1-12.9-0.4c-2.1-0.2-4.2-0.3-6.2-0.5c-4.2-0.3-8.4-0.6-12.5-1.5c-2-0.4-4.1-1-5.7-2.3c-1-0.7-1.8-1.7-2.3-2.7
				c-0.1-0.2-0.2-0.4-0.2-0.6c-0.2-0.7-0.3-1.3-0.8-1.8c0,0-0.1-0.1-0.1-0.1c-1.5-1.3-2.6-1.5-2.9-3.9c-0.8-6.5,5.7-5.7,5.7-5.7
				s2.4-11.3,24.3-9.7c21.8,1.6,19.4,13.8,19.4,13.8s6.2,1.3,6.1,4.4c-0.1,2.5,0.8,5.7-5.3,4.4c-0.3,0.2-0.6,0.5-0.9,0.7
				c-2,1.3-3.7,1.6-4.9,1.2c0,0-1.1-0.4-2.6-2.3c-0.4-0.5-0.9-1.2-1.3-2c0,0-0.5,1.1-0.8,1.5c-0.1,0.2-0.3,0.3-0.6,0.3
				c-0.3,0.1-0.8,0-1.2-0.1"/>
			<line class="st3" x1="101.9" y1="43.1" x2="101.9" y2="43.1"/>
			<path class="st3" d="M87.9,29.3c-0.4,2.2-2.1,3.8-3.9,3.5c-1.8-0.3-2.9-2.3-2.6-4.5c0.4-2.2,2.1-3.8,3.9-3.5
				C87.1,25.1,88.2,27.1,87.9,29.3z"/>
			<path class="st3" d="M104.1,31.7c-0.4,2.2-2.1,3.8-3.9,3.5c-1.8-0.3-2.9-2.3-2.6-4.5c0.4-2.2,2.1-3.8,3.9-3.5
				C103.3,27.5,104.4,29.5,104.1,31.7z"/>
		</g>
	</g>
</g>
<path class="st3" d="M89.8,33.9c-0.2,0.9,0.4,1.8,1.2,2.2c0.6,0.4,1.4,0.5,2.1,0.2c0.7-0.3,1.3-1,1.2-1.8"/>
<path class="st4" d="M102.6,58.3c-3.5,1.2-11.1,1.7-13.3-0.4c0.7,0.6,10-2.4,11-2.8c2.2-0.7,4.4-2,6.6-2.6c1.6-0.5,3.3-0.8,2.6,1.2
	C108.7,56.2,104.4,57.7,102.6,58.3z"/>
<path class="st4" d="M75.6,56.2c3.3,1.7,13.9,2.6,16.4,0.8c-0.7,0.5-12.6-3.2-13.6-3.6c-2.1-1-4.1-2.6-6.2-3.5
	c-1.5-0.7-3.1-1.3-2.8,0.9C69.8,53.2,73.9,55.3,75.6,56.2z"/>
<ellipse transform="matrix(1.883742e-02 -0.9998 0.9998 1.883742e-02 53.5413 114.1854)" class="st5" cx="84.9" cy="29.8" rx="3.1" ry="2.2"/>
<ellipse transform="matrix(1.883742e-02 -0.9998 0.9998 1.883742e-02 66.7653 130.6624)" class="st5" cx="100" cy="31.3" rx="3.1" ry="2.2"/>
</svg>
