<?xml version="1.0" encoding="utf-8"?>
<!-- Generator: Adobe Illustrator 21.1.0, SVG Export Plug-In . SVG Version: 6.00 Build 0)  -->
<svg version="1.1" id="Layer_1" xmlns="http://www.w3.org/2000/svg" xmlns:xlink="http://www.w3.org/1999/xlink" x="0px" y="0px"
	 viewBox="0 0 180 100" style="enable-background:new 0 0 180 100;" xml:space="preserve">
<style type="text/css">
	.st0{fill:#C8EAF5;}
	.st1{fill:#AEE0E8;}
	.st2{fill:none;stroke:#AEE0E8;stroke-miterlimit:10;}
	.st3{fill:none;stroke:#000000;stroke-miterlimit:10;}
	.st4{stroke:#000000;stroke-width:0.5;stroke-linecap:round;stroke-linejoin:round;}
	.st5{fill:#FFFFFF;}
	.st6{stroke:#000000;stroke-miterlimit:10;}
	.st7{fill:#ED1E79;stroke:#ED1E79;stroke-miterlimit:10;}
</style>
<g id="milk">
	<g id="XMLID_77_">
		<g>
			<path class="st0" d="M117,32.4l-0.1,3.1l-0.1,0c-1,3.9-2.4,7.6-3.7,11.4c-1.1,3.2-2.3,6.5-3.5,9.7c-1.2,3.5-2.5,6.9-4,10.3
				c-1.2,2.5-2.5,5-4.1,7.4c-1.2,1.9-2.6,3.8-4.6,5c-1.3,0.8-2.8,1.2-4.3,1.4l3.1-46.3l0,0l20.9-1.8L117,32.4z"/>
			<polygon class="st0" points="107.5,19.4 117,32.4 116.7,32.4 116.7,32.4 105.2,27.9 105.2,19.4 105.2,19.2 			"/>
			<path class="st1" d="M116.9,35.5l-2.1,50.2l-22.9,4.8l0.7-9.9c1.5-0.2,3-0.6,4.3-1.4c2-1.2,3.4-3.1,4.6-5
				c1.5-2.3,2.9-4.8,4.1-7.4c1.5-3.3,2.8-6.8,4-10.3c1.1-3.2,2.3-6.5,3.5-9.7c1.3-3.8,2.7-7.5,3.7-11.4L116.9,35.5z"/>
			<polygon class="st1" points="105.2,12.7 107.5,19.4 105.2,19.2 102.8,19.1 104,12.4 			"/>
			<polygon class="st1" points="105.2,19.2 105.2,19.4 105.2,27.9 96,33.7 96,33.7 102.7,19.4 102.8,19.1 			"/>
			<path class="st0" d="M104,12.4l-1.2,6.7l-0.1,0l-25.4-3.2l-0.1-0.1c0.7-1.8,1.2-5,1.2-5.7l0.2,0L104,12.4z"/>
			<path class="st0" d="M102.7,19.1L102.7,19.1v0.3L96,33.7l-0.3,0.6l-0.3,0l-29.2-3.2c0,0,9.8-13,10.8-14.9
				c0.1-0.1,0.1-0.2,0.2-0.4l0.1,0.1L102.7,19.1z"/>
			<polygon class="st0" points="105.2,27.9 116.7,32.4 116.7,32.4 95.7,34.3 96,33.7 96,33.7 			"/>
			<path class="st0" d="M95.4,34.3l0.3,0l0,0l-3.1,46.3c-2.7,0.3-5.6,0-8.3,0.1c-6.7,0.2-13.1,3-19.4,5.6l0,0.1L63,86.1l3.2-54.9
				L95.4,34.3z"/>
			<path class="st1" d="M92.6,80.6l-0.7,9.9l-27.1-4.2l0-0.1c6.2-2.5,12.7-5.4,19.4-5.6C87,80.6,89.9,80.9,92.6,80.6z"/>
		</g>
		<g>
			<path class="st2" d="M64.9,86.3c6.2-2.5,12.7-5.4,19.4-5.6c2.7-0.1,5.6,0.2,8.3-0.1c1.5-0.2,3-0.6,4.3-1.4c2-1.2,3.4-3.1,4.6-5
				c1.5-2.3,2.9-4.8,4.1-7.4c1.5-3.3,2.8-6.8,4-10.3c1.1-3.2,2.3-6.5,3.5-9.7c1.3-3.8,2.7-7.5,3.7-11.4"/>
			<path class="st3" d="M78.4,10c0,0,0,0,0,0.1c-0.1,0.7-0.5,3.9-1.2,5.7c-0.1,0.1-0.1,0.3-0.2,0.4c-1,1.9-10.8,14.9-10.8,14.9
				L63,86.1l1.8,0.3l27.1,4.2l0.7-9.9l3.1-46.3l0,0l0.3-0.6l6.7-14.3l0.1-0.3l1.2-6.7l1.3,0.3l2.2,6.7l9.5,13l-0.1,3.1l-2.1,50.2
				l-22.9,4.8"/>
			<line class="st3" x1="66.2" y1="31.1" x2="95.4" y2="34.3"/>
			<polyline class="st3" points="117,32.4 116.7,32.4 95.7,34.3 95.4,34.3 			"/>
			<polyline class="st3" points="102.7,19.1 102.8,19.1 105.2,19.2 107.5,19.4 			"/>
			<polyline class="st3" points="105.2,19.4 105.2,27.9 105.2,28.3 			"/>
			<line class="st3" x1="116.7" y1="32.4" x2="105.2" y2="27.9"/>
			<line class="st3" x1="96" y1="33.7" x2="105.2" y2="27.9"/>
			<line class="st3" x1="77.3" y1="15.9" x2="102.7" y2="19.1"/>
			<line class="st3" x1="78.6" y1="10.2" x2="104" y2="12.4"/>
		</g>
	</g>
</g>
<ellipse transform="matrix(6.002233e-02 -0.9982 0.9982 6.002233e-02 31.1979 136.3838)" class="st4" cx="88" cy="51.6" rx="4.1" ry="2.6"/>
<ellipse transform="matrix(6.002233e-02 -0.9982 0.9982 6.002233e-02 29.1197 135.7993)" class="st5" cx="86.7" cy="52.4" rx="0.9" ry="0.8"/>
<ellipse transform="matrix(6.002233e-02 -0.9982 0.9982 6.002233e-02 29.6762 139.9718)" class="st5" cx="89.2" cy="54.2" rx="0.5" ry="0.4"/>
<ellipse transform="matrix(6.002233e-02 -0.9982 0.9982 6.002233e-02 17.4706 118.5903)" class="st4" cx="71.7" cy="50" rx="4.6" ry="2.6"/>
<ellipse transform="matrix(6.002233e-02 -0.9982 0.9982 6.002233e-02 14.8975 118.4186)" class="st5" cx="70.3" cy="51.3" rx="0.9" ry="0.8"/>
<ellipse transform="matrix(6.002233e-02 -0.9982 0.9982 6.002233e-02 15.454 122.5911)" class="st5" cx="72.8" cy="53.1" rx="0.5" ry="0.4"/>
<ellipse transform="matrix(0.3195 -0.9476 0.9476 0.3195 -10.6955 119.2086)" class="st6" cx="77.7" cy="67.1" rx="3.6" ry="5.4"/>
<ellipse transform="matrix(0.1861 -0.9825 0.9825 0.1861 -4.9391 132.1508)" class="st7" cx="77.3" cy="69.1" rx="1.6" ry="3"/>
</svg>
